<svg version="1.1" id="svg2" width="1024" height="1024" viewBox="-92.47799682617188 -216.6649932861328 668.4087829589844 636.1320953369141" sodipodi:docname="RED ENGINEERING LOGO (CMYK).ai" xmlns:inkscape="http://www.inkscape.org/namespaces/inkscape" xmlns:sodipodi="http://sodipodi.sourceforge.net/DTD/sodipodi-0.dtd" xmlns="http://www.w3.org/2000/svg" xmlns:svg="http://www.w3.org/2000/svg"><g id="g8" inkscape:groupmode="layer" inkscape:label="RED ENGINEERING LOGO (CMYK)" transform="matrix(2,0,0,-2,-585,720)"><g id="g10" transform="translate(341.8185,419.4671)"><path d="m 0,0 -92.478,-92.478 v -124.187 l 64.982,64.983 V -37.748 H 86.439 L 124.187,0 Z" style="fill:#e30613;fill-opacity:1;fill-rule:nonzero;stroke:none" id="path12"/></g><g id="g14" transform="translate(360.3423,202.8161)"><path d="M 0,0 V 28.812 H 18.412 V 24.887 H 4.371 V 16.47 H 16.349 V 12.585 H 4.371 V 3.925 H 18.412 V 0 Z" style="fill:#e30613;fill-opacity:1;fill-rule:nonzero;stroke:none" id="path16"/></g><g id="g18"><g id="g20" clip-path="url(#clipPath24)"><g id="g26" transform="translate(396.8872,202.8161)"><path d="m 0,0 v 12.504 c 0,3.197 -1.821,4.573 -4.128,4.573 -2.307,0 -4.249,-1.417 -4.249,-4.573 V 0 h -4.128 v 20.517 h 4.047 v -2.064 c 1.416,1.537 3.399,2.306 5.463,2.306 2.104,0 3.845,-0.688 5.058,-1.862 1.579,-1.537 2.064,-3.479 2.064,-5.786 L 4.127,0 Z" style="fill:#e30613;fill-opacity:1;fill-rule:nonzero;stroke:none" id="path28"/></g><g id="g30" transform="translate(414.8569,219.8933)"><path d="m 0,0 c -3.723,0 -4.208,-3.197 -4.208,-6.435 0,-3.237 0.485,-6.433 4.208,-6.433 3.723,0 4.168,3.196 4.168,6.433 C 4.168,-3.197 3.723,0 0,0 m -0.485,-25.615 c -3.117,0 -5.099,0.728 -7.244,2.711 l 2.63,2.63 c 1.295,-1.214 2.428,-1.821 4.452,-1.821 3.48,0 4.815,2.468 4.815,5.22 v 2.631 c -1.497,-1.781 -3.196,-2.348 -5.301,-2.348 -2.064,0 -3.763,0.689 -4.896,1.821 -1.984,1.983 -2.307,4.856 -2.307,8.336 0,3.481 0.323,6.354 2.307,8.336 1.133,1.133 2.873,1.781 4.936,1.781 2.186,0 3.845,-0.567 5.382,-2.428 v 2.185 h 4.006 v -20.395 c 0,-5.018 -3.317,-8.659 -8.78,-8.659" style="fill:#e30613;fill-opacity:1;fill-rule:nonzero;stroke:none" id="path32"/></g><path d="m 429.831,223.333 h 4.128 v -20.517 h -4.128 z m -0.121,8.417 h 4.37 v -4.37 h -4.37 z" style="fill:#e30613;fill-opacity:1;fill-rule:nonzero;stroke:none" id="path34"/><g id="g36" transform="translate(453.1416,202.8161)"><path d="m 0,0 v 12.504 c 0,3.197 -1.821,4.573 -4.128,4.573 -2.307,0 -4.249,-1.417 -4.249,-4.573 V 0 h -4.128 v 20.517 h 4.047 v -2.064 c 1.417,1.537 3.399,2.306 5.463,2.306 2.104,0 3.845,-0.688 5.058,-1.862 1.579,-1.537 2.064,-3.479 2.064,-5.786 L 4.127,0 Z" style="fill:#e30613;fill-opacity:1;fill-rule:nonzero;stroke:none" id="path38"/></g><g id="g40" transform="translate(475.4414,217.5456)"><path d="M 0,0 C -0.647,1.538 -2.104,2.59 -4.047,2.59 -5.989,2.59 -7.486,1.538 -8.134,0 -8.538,-0.931 -8.619,-1.537 -8.66,-2.792 H 0.566 C 0.526,-1.537 0.404,-0.931 0,0 m -8.66,-5.665 c 0,-3.521 1.861,-5.746 5.221,-5.746 2.306,0 3.52,0.647 4.977,2.104 l 2.63,-2.468 c -2.105,-2.105 -4.087,-3.198 -7.689,-3.198 -5.139,0 -9.226,2.712 -9.226,10.522 0,6.637 3.439,10.48 8.7,10.48 5.504,0 8.7,-4.046 8.7,-9.873 v -1.821 z" style="fill:#e30613;fill-opacity:1;fill-rule:nonzero;stroke:none" id="path42"/></g><g id="g44" transform="translate(497.376,217.5456)"><path d="M 0,0 C -0.647,1.538 -2.104,2.59 -4.047,2.59 -5.989,2.59 -7.486,1.538 -8.134,0 -8.538,-0.931 -8.619,-1.537 -8.66,-2.792 H 0.566 C 0.526,-1.537 0.404,-0.931 0,0 m -8.66,-5.665 c 0,-3.521 1.861,-5.746 5.221,-5.746 2.306,0 3.52,0.647 4.976,2.104 l 2.631,-2.468 c -2.105,-2.105 -4.087,-3.198 -7.689,-3.198 -5.139,0 -9.226,2.712 -9.226,10.522 0,6.637 3.439,10.48 8.7,10.48 5.504,0 8.7,-4.046 8.7,-9.873 v -1.821 z" style="fill:#e30613;fill-opacity:1;fill-rule:nonzero;stroke:none" id="path46"/></g><g id="g48" transform="translate(518.9072,218.5173)"><path d="m 0,0 c -0.932,0.931 -1.659,1.376 -3.076,1.376 -2.226,0 -4.087,-1.781 -4.087,-4.613 v -12.464 h -4.128 V 4.815 h 4.047 V 2.59 c 1.053,1.457 3.156,2.468 5.463,2.468 1.983,0 3.48,-0.526 4.896,-1.943 z" style="fill:#e30613;fill-opacity:1;fill-rule:nonzero;stroke:none" id="path50"/></g><path d="m 526.313,223.333 h 4.128 v -20.517 h -4.128 z m -0.121,8.417 h 4.37 v -4.37 h -4.37 z" style="fill:#e30613;fill-opacity:1;fill-rule:nonzero;stroke:none" id="path52"/><g id="g54" transform="translate(549.624,202.8161)"><path d="m 0,0 v 12.504 c 0,3.197 -1.821,4.573 -4.128,4.573 -2.307,0 -4.249,-1.417 -4.249,-4.573 V 0 h -4.128 v 20.517 h 4.047 v -2.064 c 1.417,1.537 3.399,2.306 5.463,2.306 2.104,0 3.845,-0.688 5.058,-1.862 1.579,-1.537 2.064,-3.479 2.064,-5.786 L 4.127,0 Z" style="fill:#e30613;fill-opacity:1;fill-rule:nonzero;stroke:none" id="path56"/></g><g id="g58" transform="translate(567.5937,219.8933)"><path d="m 0,0 c -3.723,0 -4.208,-3.197 -4.208,-6.435 0,-3.237 0.485,-6.433 4.208,-6.433 3.723,0 4.168,3.196 4.168,6.433 C 4.168,-3.197 3.723,0 0,0 m -0.485,-25.615 c -3.117,0 -5.099,0.728 -7.244,2.711 l 2.63,2.63 c 1.295,-1.214 2.428,-1.821 4.452,-1.821 3.48,0 4.815,2.468 4.815,5.22 v 2.631 c -1.497,-1.781 -3.196,-2.348 -5.301,-2.348 -2.063,0 -3.763,0.689 -4.896,1.821 -1.984,1.983 -2.307,4.856 -2.307,8.336 0,3.481 0.323,6.354 2.307,8.336 1.133,1.133 2.873,1.781 4.936,1.781 2.186,0 3.845,-0.567 5.382,-2.428 v 2.185 h 4.007 v -20.395 c 0,-5.018 -3.318,-8.659 -8.781,-8.659" style="fill:#e30613;fill-opacity:1;fill-rule:nonzero;stroke:none" id="path60"/></g><g id="g62" transform="translate(394.0947,320.1555)"><path d="M 0,0 H -16.369 V -23.491 H 0 c 7.623,0 12.621,4.873 12.621,11.746 C 12.621,-4.873 7.623,0 0,0 M 13.495,-73.473 -3.873,-37.986 H -16.369 V -73.473 H -33.737 V 15.495 H 1.125 c 18.118,0 28.864,-12.371 28.864,-27.24 0,-12.496 -7.622,-20.244 -16.244,-23.367 l 19.868,-38.361 z" style="fill:#e30613;fill-opacity:1;fill-rule:nonzero;stroke:none" id="path64"/></g><g id="g66" transform="translate(438.9531,246.6823)"><path d="M 0,0 V 88.968 H 58.604 V 73.473 H 17.369 V 52.606 H 52.48 V 37.111 H 17.369 V 15.494 H 58.604 V 0 Z" style="fill:#e30613;fill-opacity:1;fill-rule:nonzero;stroke:none" id="path68"/></g><g id="g70" transform="translate(554.7861,314.6584)"><path d="m 0,0 c -2.999,3.623 -6.998,5.497 -12.995,5.497 h -13.12 v -57.979 h 13.12 c 5.997,0 9.996,1.874 12.995,5.498 3.249,3.999 3.748,10.371 3.748,23.866 C 3.748,-9.622 3.249,-3.999 0,0 m 12.12,-59.479 c -5.873,-5.873 -14.244,-8.497 -23.491,-8.497 h -32.113 v 88.968 h 32.113 c 9.247,0 17.618,-2.624 23.491,-8.497 9.996,-9.996 8.997,-22.242 8.997,-35.613 0,-13.37 0.999,-26.365 -8.997,-36.361" style="fill:#e30613;fill-opacity:1;fill-rule:nonzero;stroke:none" id="path72"/></g></g></g></g></svg>